ffmpeg version 3.4 Copyright (c) 2000-2017 the FFmpeg developers
  built with gcc 7.2.0 (GCC)
  configuration: --enable-gpl --enable-version3 --enable-sdl2 --enable-bzlib --enable-fontconfig --enable-gnutls --enable-iconv --enable-libass --enable-libbluray --enable-libfreetype --enable-libmp3lame --enable-libopenjpeg --enable-libopus --enable-libshine --enable-libsnappy --enable-libsoxr --enable-libtheora --enable-libtwolame --enable-libvpx --enable-libwavpack --enable-libwebp --enable-libx264 --enable-libx265 --enable-libxml2 --enable-libzimg --enable-lzma --enable-zlib --enable-gmp --enable-libvidstab --enable-libvorbis --enable-cuda --enable-cuvid --enable-d3d11va --enable-nvenc --enable-dxva2 --enable-avisynth --enable-libmfx
  libavutil      55. 78.100 / 55. 78.100
  libavcodec     57.107.100 / 57.107.100
  libavformat    57. 83.100 / 57. 83.100
  libavdevice    57. 10.100 / 57. 10.100
  libavfilter     6.107.100 /  6.107.100
  libswscale      4.  8.100 /  4.  8.100
  libswresample   2.  9.100 /  2.  9.100
  libpostproc    54.  7.100 / 54.  7.100
Input #0, image2, from 'E:/Cours/ATI/Arya_Lucie_Elie/reel/sequences/renders/00_Sequence/%04d.png':
  Duration: 00:00:57.00, start: 0.000000, bitrate: N/A
    Stream #0:0: Video: png, rgba(pc), 1920x1080 [SAR 2835:2835 DAR 16:9], 25 fps, 25 tbr, 25 tbn, 25 tbc
Output #0, mp4, to 'G:/SourceCode/QNodeEditorTest/build-msvc15/src/QNodeEditorTest/test65.mp4':
  Metadata:
    encoder         : Lavf57.83.100
    Stream #0:0: Video: png (mp4v / 0x7634706D), rgba(pc), 1920x1080 [SAR 2835:2835 DAR 16:9], q=2-31, 25 fps, 25 tbr, 12800 tbn, 25 tbc
Stream mapping:
  Stream #0:0 -> #0:0 (copy)
Press [q] to stop, [?] for help
frame=  128 fps=0.0 q=-1.0 size=   17408kB time=00:00:05.08 bitrate=28071.8kbits/s speed=9.77x    frame=  194 fps=187 q=-1.0 size=   52224kB time=00:00:07.72 bitrate=55416.5kbits/s speed=7.46x    frame=  220 fps=143 q=-1.0 size=   75776kB time=00:00:08.76 bitrate=70862.1kbits/s speed=5.69x    frame=  249 fps=122 q=-1.0 size=  105216kB time=00:00:09.92 bitrate=86887.4kbits/s speed=4.85x    frame=  280 fps=102 q=-1.0 size=  138240kB time=00:00:11.16 bitrate=101474.4kbits/s speed=4.08x    frame=  329 fps=101 q=-1.0 size=  196608kB time=00:00:13.12 bitrate=122759.4kbits/s speed=4.04x    frame=  376 fps=100 q=-1.0 size=  254464kB time=00:00:15.00 bitrate=138970.6kbits/s speed=3.97x    frame=  400 fps= 92 q=-1.0 size=  289280kB time=00:00:15.96 bitrate=148481.9kbits/s speed=3.66x    frame=  421 fps= 86 q=-1.0 size=  333056kB time=00:00:16.80 bitrate=162403.7kbits/s speed=3.45x    frame=  440 fps= 82 q=-1.0 size=  390144kB time=00:00:17.56 bitrate=182007.2kbits/s speed=3.27x    frame=  454 fps= 77 q=-1.0 size=  431104kB time=00:00:18.12 bitrate=194900.1kbits/s speed=3.08x    frame=  466 fps= 73 q=-1.0 size=  464896kB time=00:00:18.60 bitrate=204753.4kbits/s speed=2.91x    frame=  482 fps= 70 q=-1.0 size=  506880kB time=00:00:19.24 bitrate=215818.3kbits/s speed=2.78x    frame=  505 fps= 68 q=-1.0 size=  534784kB time=00:00:20.16 bitrate=217308.2kbits/s speed=2.72x    frame=  543 fps= 68 q=-1.0 size=  550144kB time=00:00:21.68 bitrate=207876.6kbits/s speed=2.73x    